<svg id="Layer_1" data-name="Layer 1" xmlns="http://www.w3.org/2000/svg" viewBox="0 0 2507.5 1091.78"><defs><style>.cls-1{fill:#babca7;}.cls-2{fill:#f2f2f2;}</style></defs><title>Artboard 4 copy</title><rect class="cls-1" x="1526.34" y="627.14" width="64.09" height="64.09" transform="translate(-9.67 1295.01) rotate(-45)"/><rect class="cls-1" x="1169.32" y="627.14" width="64.09" height="64.09" transform="translate(-114.24 1042.56) rotate(-45)"/><path class="cls-1" d="M625.39,261.28l-24.27,217c-.91,7.66-8.93,13.08-16.65,13.08h-153c-9.13,0-14.07-8-13-17.08,2.94-30.51-23.17-56.88-53.82-56.88H334L323.33,517.54a57.41,57.41,0,0,0,57,64.19H624.13c29.08,0,58.3-20.07,61.74-49l35.38-317.29H677A51.94,51.94,0,0,0,625.39,261.28Z"/><path class="cls-2" d="M761.16,261.29l-5.3,44.57-.14,1.2-5.39,45.18-.14,1.19L739.43,443.8l-.14,1.2-5.38,45.16-.15,1.21L723,581.73h41.75c26.31,0,50.77-17.79,53.88-43.91l5.14-46,.19-1.71,4.92-44.16.2-1.73,10.12-90.42.1-1.23,5.07-45.47.16-1.39,10-90.18H812.74A51.94,51.94,0,0,0,761.16,261.29Z"/><path class="cls-1" d="M1790.42,560.7,1615.13,285c-17.19-27-36.65-55.92-67-66.14-36.37-12.24-77.33,7.62-101.3,37.59s-50.2,82.25-60.34,119.26c22.36-20.32,57.68-50.77,83.92-71.38,8.47-6.64,18.71-12.82,29.36-11.26,12.07,1.76,21.06,11.41,27.59,21.71C1565.8,375.47,1601.87,432.25,1639,491l-239.62,1.37c-13.85.07-28.14.07-40.89-5.35s-23.64-17.72-22.91-31.55l-109.73.15c8.67,7.36,4.77,22.67-4.56,29.18s-21.5,6.73-32.88,6.73l-231.33-.14c6.95-69.7,15.56-139,23-208.61,1.33-12.33.23-25.77-4.46-37.26-11.18-27.37-47.59-32.26-77.08-30L862.5,519.42c-2.12,17.8-3.31,38.38,9.51,50.9,10.82,10.55,27.58,11.21,42.69,11.23l298.34.34c25.18,0,50.94,0,74.64-8.51s45.36-27.15,50.22-51.85c4.42,24.4,25.63,43,48.94,51.49s48.69,8.57,73.48,8.58l73.85,0,73.85,0,73.85,0,73.85,0h17.35c5.4,0,11,.4,16.34-.06,9.4-.8,6.15-12.89,2.79-18.19Z"/><path class="cls-2" d="M965.37,215.73h-.19c.42.24.81.52,1.22.78,1.5,1.13,3,2.3,4.37,3.58.74.69,1.37,1.3,2,1.89l.83.85c.44.45.92.93,1.34,1.4.64.68,1.26,1.42,1.89,2.15s1.21,1.46,1.8,2.24,1.25,1.63,1.84,2.51c.43.61.95,1.42,1.47,2.2l.83,1.37.07.07.75,1.35c.56,1,1.07,2,1.57,3a69.74,69.74,0,0,1,5.22,17.6,95.16,95.16,0,0,1,1,17.36c0,.32,0,.64-.09.94L987.9,304c-.13.7-.25,1.41-.38,2.11a.19.19,0,0,1,.13,0c25.25,0,53.26-.24,80.88-.21,44.39.06,88.75-.07,133.13,0,10,0,20.48.61,29.51,5,10.08,4.91,18.24,17.76,12,28.65-5.26,9.17-17.52,13.88-27.63,14.26-.39,0-.77,0-1.16,0H1048.13c-22,.07-44.2-.06-66.17,0,0,0,.08-.59.07-.55l-.2,1.41-5.1,43q-2.76,23-5.47,46v.13l77.35-.12h149.89l1.56.1h123.47c1.35.05,2.71.08,4,0h1.93c-.14-.25-.3-.49-.45-.74-1.28-3-3.89-6-5.82-8.53-.08-.1-.17-.2-.25-.31a100.9,100.9,0,0,0-41.72-32.3l-.12-.05c-2.19-.93-4.41-1.77-6.65-2.54a49.17,49.17,0,0,0-5.12-1.84c40.13-4,75.47-37.77,81-77.76,5.6-40.5-20-83.18-58.3-97.36-13.48-5-27.8-6.68-42.23-7.22-8.77-.43-17.6-.42-26.33-.39l-150,.58c-38.86.09-77.51.18-108.34.27Z"/><path class="cls-2" d="M2132.63,491.52l-210.3.07,24.37-218.18c.9-31-21.67-57.77-52.79-57.77h-31.6l-33.73,302.05a57.41,57.41,0,0,0,57,64.2h294.77l3.85-32.28A52,52,0,0,0,2132.63,491.52Z"/><path class="cls-2" d="M379.13,875.3l51-99.43h17.28l19.45,99.43h-17L445.64,852H409.05l-11.7,23.26Zm37-37.54h26.92l-6.12-33.33a48.27,48.27,0,0,1-.95-7.34c-.68,1.77-1.9,4.76-3.13,7.34Z"/><path class="cls-2" d="M571,875.3l15.78-99.43h32.5c25.3,0,42.85,18.77,42.85,44.48,0,33.18-23.53,54.95-56.31,54.95Zm30.06-83.92-10.88,68.28h16.73c22.17,0,37.4-14.83,37.4-39.31,0-17.28-10.61-29-28-29Z"/><path class="cls-2" d="M764,775.87h17.14L793.26,834a167.72,167.72,0,0,1,3.13,19.72c3.81-8.84,6.25-13.74,9.38-19.58l30.33-58.22h18.23l-52,99.43H785Z"/><path class="cls-2" d="M942.89,875.3l15.78-99.43h60.38l-2.44,15.64H973l-4.22,26.25h39l-2.32,15H966.28l-4.21,26.94h43.79l-2.45,15.64Z"/><path class="cls-2" d="M1113,875.3l15.77-99.43h16.6L1180,847l11.15-71.14h16.73l-15.78,99.43h-16.59l-34.68-71.14L1129.7,875.3Z"/><path class="cls-2" d="M1312.76,775.87h73.58l-2.44,15.51h-28.43l-13.33,83.92h-16.59l13.33-83.92h-28.56Z"/><path class="cls-2" d="M1490.86,775.87h16.73l-9.8,62.29c-2.31,14.15,4.49,22.58,18.37,22.58,13.73,0,22.71-8.16,25-22.58l9.93-62.29h16.73l-10.2,63.38c-3.81,23.8-18.91,37.68-42.84,37.68-22.31,0-37.41-15.78-33.87-38.63Z"/><path class="cls-2" d="M1665.65,875.3l15.77-99.43H1718c18.64,0,30.47,10.75,30.47,27.61,0,13.88-8.43,25.3-23,31l13.06,40.81h-17.27l-11.84-37.41h-21.21l-5.85,37.41Zm25-52.23h20.13c12.52,0,20.27-6.94,20.27-18.23,0-8.84-5.85-13.87-15.64-13.87h-19.72Z"/><path class="cls-2" d="M1847.17,875.3,1863,775.87h60.39l-2.45,15.64h-43.66L1873,817.76h39l-2.31,15h-39.17l-4.22,26.94h43.79l-2.44,15.64Z"/><path class="cls-2" d="M2057.71,774.1c18.77,0,32.78,12.11,33.59,29.11h-16.73c-1-8.84-7.48-14.14-17.54-14.14-10.88,0-17.55,5.3-17.55,14.14,0,6.66,3.54,10.75,11.56,13.33l14.42,4.49c14.14,4.49,20.81,12.51,20.81,25.16,0,18.5-14.28,30.87-35.77,30.87-21,0-34-10.74-35.09-29.1h16.86c.82,8.84,7.62,14,18.77,14,11.43,0,18.77-5.58,18.77-14.28,0-6.26-2.85-9.53-10.34-11.84l-14.55-4.49c-14.42-4.48-22-13.46-22-26C2022.89,786.48,2036.9,774.1,2057.71,774.1Z"/></svg>